<svg width="24" height="25" viewBox="0 0 24 25" fill="none" xmlns="http://www.w3.org/2000/svg">
<path d="M16.5 22.5078C16.3594 22.5078 16.2305 22.4805 16.1133 22.4258C15.9961 22.3711 15.8906 22.3047 15.7969 22.2266L6.79688 13.2031C6.70312 13.125 6.62891 13.0234 6.57422 12.8984C6.51953 12.7734 6.49219 12.6406 6.49219 12.5C6.49219 12.3594 6.51953 12.2305 6.57422 12.1133C6.62891 11.9961 6.70312 11.8906 6.79688 11.7969L15.7969 2.79688C15.8906 2.70312 15.9961 2.62891 16.1133 2.57422C16.2305 2.51953 16.3672 2.49219 16.5234 2.49219C16.7891 2.49219 17.0195 2.58984 17.2148 2.78516C17.4102 2.98047 17.5078 3.21875 17.5078 3.5C17.5078 3.64062 17.4805 3.77344 17.4258 3.89844C17.3711 4.02344 17.2969 4.125 17.2031 4.20312L8.90625 12.5L17.2031 20.7969C17.2969 20.8906 17.3711 21 17.4258 21.125C17.4805 21.25 17.5078 21.375 17.5078 21.5C17.5078 21.7812 17.4102 22.0195 17.2148 22.2148C17.0195 22.4102 16.7812 22.5078 16.5 22.5078Z" fill="#637381"/>
</svg>
