<svg width="24" height="25" viewBox="0 0 24 25" fill="none" xmlns="http://www.w3.org/2000/svg">
<path fill-rule="evenodd" clip-rule="evenodd" d="M11.9943 13.9086L17.6486 19.5633C17.8371 19.7453 18.0896 19.8461 18.3516 19.8438C18.6137 19.8415 18.8644 19.7364 19.0497 19.5511C19.235 19.3657 19.3402 19.115 19.3424 18.853C19.3447 18.5909 19.244 18.3384 19.0619 18.1498L13.4076 12.4952L19.0619 6.8405C19.244 6.65197 19.3447 6.39948 19.3424 6.13739C19.3402 5.8753 19.235 5.62459 19.0497 5.43926C18.8644 5.25393 18.6137 5.1488 18.3516 5.14652C18.0896 5.14424 17.8371 5.245 17.6486 5.42708L11.9943 11.0818L6.34004 5.42708C6.15068 5.2495 5.89967 5.15256 5.64011 5.15677C5.38055 5.16099 5.13282 5.26603 4.94932 5.44967C4.76583 5.6333 4.66097 5.88113 4.65694 6.14071C4.65291 6.40029 4.75002 6.65125 4.92772 6.8405L10.581 12.4952L4.92672 18.1498C4.83126 18.242 4.75511 18.3523 4.70273 18.4743C4.65035 18.5963 4.62277 18.7274 4.62162 18.8601C4.62047 18.9929 4.64576 19.1245 4.69601 19.2473C4.74627 19.3702 4.82049 19.4818 4.91433 19.5756C5.00818 19.6695 5.11978 19.7437 5.24262 19.794C5.36545 19.8442 5.49707 19.8695 5.62978 19.8684C5.7625 19.8672 5.89366 19.8397 6.0156 19.7873C6.13755 19.7349 6.24784 19.6587 6.34004 19.5633L11.9943 13.9086Z" fill="#637381"/>
</svg>
