<svg width="32" height="32" viewBox="0 0 32 32" fill="none" xmlns="http://www.w3.org/2000/svg">
<path d="M15.9998 30.3332C8.09317 30.3332 1.6665 23.9065 1.6665 15.9998C1.6665 8.09317 8.09317 1.6665 15.9998 1.6665C23.9065 1.6665 30.3332 8.09317 30.3332 15.9998C30.3332 23.9065 23.9065 30.3332 15.9998 30.3332ZM15.9998 3.6665C9.19984 3.6665 3.6665 9.19984 3.6665 15.9998C3.6665 22.7998 9.19984 28.3332 15.9998 28.3332C22.7998 28.3332 28.3332 22.7998 28.3332 15.9998C28.3332 9.19984 22.7998 3.6665 15.9998 3.6665Z" fill="#1E1E2A"/>
<path d="M12.2266 20.7733C11.9733 20.7733 11.72 20.68 11.52 20.48C11.1333 20.0933 11.1333 19.4533 11.52 19.0666L19.0666 11.52C19.4533 11.1333 20.0933 11.1333 20.48 11.52C20.8666 11.9066 20.8666 12.5466 20.48 12.9333L12.9333 20.48C12.7466 20.68 12.48 20.7733 12.2266 20.7733Z" fill="#1E1E2A"/>
<path d="M19.7733 20.7733C19.52 20.7733 19.2666 20.68 19.0666 20.48L11.52 12.9333C11.1333 12.5466 11.1333 11.9066 11.52 11.52C11.9066 11.1333 12.5466 11.1333 12.9333 11.52L20.48 19.0666C20.8666 19.4533 20.8666 20.0933 20.48 20.48C20.28 20.68 20.0266 20.7733 19.7733 20.7733Z" fill="#1E1E2A"/>
</svg>
