<svg width="24" height="24" viewBox="0 0 24 24" fill="none" xmlns="http://www.w3.org/2000/svg">
<path fill-rule="evenodd" clip-rule="evenodd" d="M5.36515 1.90918C3.45929 1.90918 1.90918 3.45927 1.90918 5.36515V7.5704C1.90918 7.99638 2.25451 8.34171 2.68049 8.34171C3.10646 8.34171 3.45179 7.99638 3.45179 7.5704V5.36515C3.45179 4.31036 4.31037 3.45179 5.36515 3.45179H7.5704C7.99638 3.45179 8.34171 3.10646 8.34171 2.68049C8.34171 2.25451 7.99638 1.90918 7.5704 1.90918H5.36515ZM16.4298 1.90918C16.0038 1.90918 15.6585 2.25451 15.6585 2.68049C15.6585 3.10646 16.0038 3.45179 16.4298 3.45179H18.635C19.6898 3.45179 20.5484 4.31036 20.5484 5.36515V7.5704C20.5484 7.99638 20.8937 8.34171 21.3197 8.34171C21.7457 8.34171 22.091 7.99638 22.091 7.5704V5.36515C22.091 3.45927 20.5409 1.90918 18.635 1.90918H16.4298ZM8.00187 8.79341C7.58118 8.79341 7.24015 9.13445 7.24015 9.55513V11.0317C7.24015 11.4524 7.58118 11.7934 8.00187 11.7934C8.42255 11.7934 8.76358 11.4524 8.76358 11.0317V9.55513C8.76358 9.13445 8.42255 8.79341 8.00187 8.79341ZM12.5178 8.79341C12.0813 8.79341 11.7274 9.14732 11.7274 9.5839V13.2657C11.7274 13.2695 11.7261 13.273 11.7229 13.2762C11.7197 13.2794 11.7163 13.2806 11.7124 13.2806H11.2906C10.854 13.2806 10.5001 13.6345 10.5001 14.0711C10.5001 14.5077 10.854 14.8616 11.2906 14.8616H11.7124C12.5927 14.8616 13.3083 14.1459 13.3083 13.2657V9.5839C13.3083 9.14732 12.9544 8.79341 12.5178 8.79341ZM16.1134 8.79341C15.6927 8.79341 15.3517 9.13445 15.3517 9.55513V11.0317C15.3517 11.4524 15.6927 11.7934 16.1134 11.7934C16.5341 11.7934 16.8751 11.4524 16.8751 11.0317V9.55513C16.8751 9.13445 16.5341 8.79341 16.1134 8.79341ZM15.6702 15.7784C15.374 15.4577 14.8739 15.4378 14.5532 15.734L14.5532 15.734C13.8562 16.3779 12.9498 16.7323 12.0001 16.7323C11.0504 16.7323 10.144 16.3779 9.44704 15.734L9.447 15.734C9.12627 15.4378 8.62625 15.4577 8.33001 15.7783L8.32999 15.7784C8.03378 16.0991 8.05359 16.5992 8.3743 16.8954C9.36406 17.8096 10.6521 18.3133 12.0001 18.3133C13.3481 18.3133 14.6361 17.8096 15.6259 16.8954C15.9466 16.5992 15.9664 16.0991 15.6702 15.7784L15.6702 15.7784ZM2.68049 15.6585C2.25451 15.6585 1.90918 16.0038 1.90918 16.4298V18.635C1.90918 20.5409 3.45929 22.091 5.36515 22.091H7.5704C7.99638 22.091 8.34171 21.7457 8.34171 21.3197C8.34171 20.8937 7.99638 20.5484 7.5704 20.5484H5.36515C4.31038 20.5484 3.45179 19.6898 3.45179 18.635V16.4298C3.45179 16.0038 3.10646 15.6585 2.68049 15.6585ZM21.3197 15.6585C20.8937 15.6585 20.5484 16.0038 20.5484 16.4298V18.635C20.5484 19.6898 19.6898 20.5484 18.635 20.5484H16.4298C16.0038 20.5484 15.6585 20.8937 15.6585 21.3197C15.6585 21.7457 16.0038 22.091 16.4298 22.091H18.635C20.5409 22.091 22.091 20.5409 22.091 18.635V16.4298C22.091 16.0038 21.7457 15.6585 21.3197 15.6585Z" fill="#637381"/>
</svg>
