<svg width="32" height="32" viewBox="0 0 32 32" fill="none" xmlns="http://www.w3.org/2000/svg">
<path fill-rule="evenodd" clip-rule="evenodd" d="M27.345 19.7401V6.64007C27.3439 6.50583 27.3071 6.37431 27.2383 6.25904C27.1695 6.14378 27.0712 6.04892 26.9535 5.98425C26.8359 5.91957 26.7031 5.88741 26.569 5.89107C26.4348 5.89473 26.304 5.93408 26.19 6.00507C24.7416 6.81787 23.0928 7.20455 21.434 7.1205C19.7752 7.03646 18.1739 6.48511 16.815 5.53007C11.13 1.80507 5.34003 4.34507 5.10003 4.45507C4.96795 4.51312 4.85557 4.60829 4.77657 4.72901C4.69757 4.84973 4.65535 4.9908 4.65503 5.13507V27.7351C4.65503 27.7352 4.65503 27.7353 4.65503 27.7354H3.33765C2.92343 27.7354 2.58765 28.0711 2.58765 28.4854C2.58765 28.8996 2.92343 29.2354 3.33765 29.2354H7.83765C8.25186 29.2354 8.58765 28.8996 8.58765 28.4854C8.58765 28.0711 8.25186 27.7354 7.83765 27.7354H6.15503C6.15503 27.7353 6.15503 27.7352 6.15503 27.7351V18.7551C7.52003 18.2851 11.83 17.1601 15.995 19.8851C17.595 21.0002 19.4788 21.6378 21.4272 21.7237C23.3755 21.8096 25.3082 21.3401 27 20.3701C27.106 20.3027 27.1932 20.2096 27.2535 20.0994C27.3138 19.9893 27.3453 19.8657 27.345 19.7401Z" fill="#22C55E"/>
</svg>
