<svg width="16" height="16" viewBox="0 0 16 16" fill="none" xmlns="http://www.w3.org/2000/svg">
<path opacity="0.32" d="M1.52058 13.1047C1.57969 13.6771 1.95499 14.1302 2.51784 14.25C3.40625 14.4391 5.08099 14.6663 7.99992 14.6663C10.9189 14.6663 12.5936 14.4391 13.482 14.25C14.0449 14.1302 14.4202 13.6771 14.4793 13.1047C14.5669 12.2559 14.6666 10.6976 14.6666 7.99967C14.6666 5.30171 14.5669 3.74341 14.4793 2.89468C14.4202 2.32226 14.0449 1.86917 13.482 1.74934C12.5936 1.56021 10.9189 1.33301 7.99992 1.33301C5.08099 1.33301 3.40625 1.56021 2.51784 1.74934C1.95499 1.86917 1.57969 2.32226 1.52058 2.89468C1.43293 3.74341 1.33325 5.30171 1.33325 7.99967C1.33325 10.6976 1.43293 12.2559 1.52058 13.1047Z" fill="#1877F2"/>
<path d="M8 3.33301C9.06087 3.33301 10.0783 3.75444 10.8284 4.50458C11.5786 5.25473 12 6.27214 12 7.33301C12 8.69923 11.2551 9.81745 10.4702 10.6197C10.078 11.0161 9.65013 11.3755 9.192 11.6935L9.00267 11.8223L8.91378 11.8815L8.74622 11.9881L8.59689 12.0792L8.412 12.1868C8.28645 12.2582 8.14447 12.2958 8 12.2958C7.85553 12.2958 7.71355 12.2582 7.588 12.1868L7.40311 12.0792L7.172 11.937L7.08667 11.8815L6.90444 11.7601C6.41021 11.4256 5.94981 11.0436 5.52978 10.6197C4.74489 9.81656 4 8.69923 4 7.33301C4 6.27214 4.42143 5.25473 5.17157 4.50458C5.92172 3.75444 6.93913 3.33301 8 3.33301ZM8 5.99967C7.8249 5.99967 7.65152 6.03416 7.48976 6.10117C7.32799 6.16817 7.181 6.26639 7.05719 6.3902C6.93338 6.51401 6.83517 6.661 6.76816 6.82276C6.70115 6.98453 6.66667 7.15791 6.66667 7.33301C6.66667 7.5081 6.70115 7.68149 6.76816 7.84325C6.83517 8.00502 6.93338 8.15201 7.05719 8.27582C7.181 8.39963 7.32799 8.49784 7.48976 8.56485C7.65152 8.63185 7.8249 8.66634 8 8.66634C8.35362 8.66634 8.69276 8.52587 8.94281 8.27582C9.19286 8.02577 9.33333 7.68663 9.33333 7.33301C9.33333 6.97939 9.19286 6.64025 8.94281 6.3902C8.69276 6.14015 8.35362 5.99967 8 5.99967Z" fill="#1877F2"/>
</svg>
