<svg width="16" height="16" viewBox="0 0 16 16" fill="none" xmlns="http://www.w3.org/2000/svg">
<path fill-rule="evenodd" clip-rule="evenodd" d="M7.99992 14.6605C11.6819 14.6605 14.6666 11.6758 14.6666 7.99381C14.6666 4.31182 11.6819 1.32715 7.99992 1.32715C4.31792 1.32715 1.33325 4.31182 1.33325 7.99381C1.33325 11.6758 4.31792 14.6605 7.99992 14.6605ZM8.49992 5.32715C8.49992 5.19454 8.44724 5.06736 8.35347 4.97359C8.2597 4.87983 8.13253 4.82715 7.99992 4.82715C7.86731 4.82715 7.74013 4.87983 7.64637 4.97359C7.5526 5.06736 7.49992 5.19454 7.49992 5.32715V7.99381C7.49992 8.12648 7.55259 8.25381 7.64659 8.34715L9.31325 10.0138C9.35903 10.0629 9.41423 10.1023 9.47556 10.1297C9.53689 10.157 9.6031 10.1717 9.67024 10.1729C9.73737 10.1741 9.80406 10.1617 9.86632 10.1366C9.92858 10.1114 9.98513 10.074 10.0326 10.0265C10.0801 9.97903 10.1175 9.92247 10.1427 9.86021C10.1678 9.79795 10.1802 9.73127 10.179 9.66413C10.1778 9.597 10.1631 9.53079 10.1358 9.46946C10.1084 9.40812 10.069 9.35292 10.0199 9.30715L8.49992 7.78715V5.32715Z" fill="#1877F2"/>
</svg>
