<svg width="16" height="16" viewBox="0 0 16 16" fill="none" xmlns="http://www.w3.org/2000/svg">
<path d="M7.99967 1.3335C7.1242 1.3335 6.25729 1.50593 5.44845 1.84097C4.63961 2.176 3.90469 2.66706 3.28563 3.28612C2.03539 4.53636 1.33301 6.23205 1.33301 8.00016C1.33301 9.76827 2.03539 11.464 3.28563 12.7142C3.90469 13.3333 4.63961 13.8243 5.44845 14.1594C6.25729 14.4944 7.1242 14.6668 7.99967 14.6668C9.76778 14.6668 11.4635 13.9644 12.7137 12.7142C13.964 11.464 14.6663 9.76827 14.6663 8.00016C14.6663 7.12468 14.4939 6.25778 14.1589 5.44894C13.8238 4.6401 13.3328 3.90517 12.7137 3.28612C12.0947 2.66706 11.3597 2.176 10.5509 1.84097C9.74206 1.50593 8.87515 1.3335 7.99967 1.3335ZM4.71301 12.1868C4.99967 11.5868 6.74634 11.0002 7.99967 11.0002C9.25301 11.0002 10.9997 11.5868 11.2863 12.1868C10.3797 12.9068 9.23967 13.3335 7.99967 13.3335C6.75967 13.3335 5.61967 12.9068 4.71301 12.1868ZM12.2397 11.2202C11.2863 10.0602 8.97301 9.66683 7.99967 9.66683C7.02634 9.66683 4.71301 10.0602 3.75967 11.2202C3.07967 10.3335 2.66634 9.2135 2.66634 8.00016C2.66634 5.06016 5.05967 2.66683 7.99967 2.66683C10.9397 2.66683 13.333 5.06016 13.333 8.00016C13.333 9.2135 12.9197 10.3335 12.2397 11.2202ZM7.99967 4.00016C6.70634 4.00016 5.66634 5.04016 5.66634 6.3335C5.66634 7.62683 6.70634 8.66683 7.99967 8.66683C9.29301 8.66683 10.333 7.62683 10.333 6.3335C10.333 5.04016 9.29301 4.00016 7.99967 4.00016ZM7.99967 7.3335C7.73446 7.3335 7.4801 7.22814 7.29257 7.0406C7.10503 6.85307 6.99967 6.59871 6.99967 6.3335C6.99967 6.06828 7.10503 5.81393 7.29257 5.62639C7.4801 5.43885 7.73446 5.3335 7.99967 5.3335C8.26489 5.3335 8.51924 5.43885 8.70678 5.62639C8.89432 5.81393 8.99967 6.06828 8.99967 6.3335C8.99967 6.59871 8.89432 6.85307 8.70678 7.0406C8.51924 7.22814 8.26489 7.3335 7.99967 7.3335Z" fill="#637381"/>
</svg>
