<svg width="24" height="24" viewBox="0 0 24 24" fill="none" xmlns="http://www.w3.org/2000/svg">
<path d="M20.194 12.8155H3.80597C3.58849 12.8155 3.39979 12.7355 3.23987 12.5756C3.07996 12.4157 3 12.2206 3 11.9903C3 11.7728 3.07996 11.5841 3.23987 11.4242C3.39979 11.2643 3.58849 11.1844 3.80597 11.1844H20.194C20.4115 11.1844 20.6002 11.2643 20.7601 11.4242C20.92 11.5841 21 11.7728 21 11.9903C21 12.2206 20.92 12.4157 20.7601 12.5756C20.6002 12.7355 20.4115 12.8155 20.194 12.8155ZM21 6.27177C21 6.0415 20.92 5.8464 20.7601 5.68648C20.6002 5.52657 20.4115 5.44661 20.194 5.44661H3.80597C3.58849 5.44661 3.39979 5.52657 3.23987 5.68648C3.07996 5.8464 3 6.0415 3 6.27177C3 6.48926 3.07996 6.67796 3.23987 6.83787C3.39979 6.99779 3.58849 7.07774 3.80597 7.07774H20.194C20.4115 7.07774 20.6002 6.99779 20.7601 6.83787C20.92 6.67796 21 6.48926 21 6.27177ZM21 17.7281C21 17.4978 20.92 17.3027 20.7601 17.1428C20.6002 16.9829 20.4115 16.9029 20.194 16.9029H3.80597C3.58849 16.9029 3.39979 16.9829 3.23987 17.1428C3.07996 17.3027 3 17.4978 3 17.7281C3 17.9583 3.07996 18.1534 3.23987 18.3134C3.39979 18.4733 3.58849 18.5532 3.80597 18.5532H20.194C20.4115 18.5532 20.6002 18.4733 20.7601 18.3134C20.92 18.1534 21 17.9583 21 17.7281Z" fill="#637381"/>
</svg>
