<svg width="24" height="24" viewBox="0 0 24 24" fill="none" xmlns="http://www.w3.org/2000/svg">
<path d="M20.5547 15.2578C20.5078 15.2266 20.125 14.75 19.4062 13.8281C18.6875 12.9062 18.3281 11.1797 18.3281 8.64844C18.3125 7.80469 18.1328 7.02344 17.7891 6.30469C17.4609 5.57031 17.0195 4.93359 16.4648 4.39453C15.9102 3.85547 15.2656 3.42969 14.5312 3.11719C13.7969 2.80469 13.0078 2.64844 12.1641 2.64844C12.1328 2.64844 12.1016 2.64844 12.0703 2.64844C12.0391 2.64844 12.0156 2.65625 12 2.67188C11.9688 2.65625 11.9414 2.64844 11.918 2.64844C11.8945 2.64844 11.8672 2.64844 11.8359 2.64844C10.9922 2.64844 10.2031 2.80469 9.46875 3.11719C8.73438 3.42969 8.08984 3.85547 7.53516 4.39453C6.98047 4.93359 6.53906 5.57031 6.21094 6.30469C5.86719 7.02344 5.6875 7.79688 5.67188 8.625V8.64844C5.67188 11.1797 5.31641 12.9062 4.60547 13.8281C3.89453 14.75 3.51562 15.2266 3.46875 15.2578C3.32812 15.3516 3.21484 15.4727 3.12891 15.6211C3.04297 15.7695 3 15.9297 3 16.1016C3 16.3828 3.09766 16.6211 3.29297 16.8164C3.48828 17.0117 3.72656 17.1094 4.00781 17.1094H8.03906C8.14844 18 8.49219 18.9297 9.07031 19.8984C9.64844 20.8672 10.625 21.3516 12 21.3516C13.375 21.3516 14.3516 20.8672 14.9297 19.8984C15.5078 18.9297 15.8516 18 15.9609 17.1094H19.9922C20.2266 17.1094 20.4297 17.043 20.6016 16.9102C20.7734 16.7773 20.8906 16.6094 20.9531 16.4062V16.3828C20.9688 16.3516 20.9805 16.3086 20.9883 16.2539C20.9961 16.1992 21 16.1484 21 16.1016C21 15.9297 20.957 15.7695 20.8711 15.6211C20.7852 15.4727 20.6797 15.3516 20.5547 15.2578ZM12 19.3594C11.3281 19.3594 10.8555 19.0938 10.582 18.5625C10.3086 18.0312 10.1406 17.5469 10.0781 17.1094H13.9219C13.8594 17.5469 13.6914 18.0312 13.418 18.5625C13.1445 19.0938 12.6719 19.3594 12 19.3594ZM6.16406 15.0938C6.63281 14.2344 7.00391 13.3008 7.27734 12.293C7.55078 11.2852 7.6875 10.2344 7.6875 9.14062C7.6875 9.0625 7.68359 8.97656 7.67578 8.88281C7.66797 8.78906 7.66406 8.69531 7.66406 8.60156V8.64844C7.71094 7.52344 8.13672 6.57812 8.94141 5.8125C9.74609 5.04688 10.7109 4.66406 11.8359 4.66406C11.8672 4.66406 11.8984 4.66406 11.9297 4.66406C11.9609 4.66406 11.9844 4.66406 12 4.66406C12.0312 4.66406 12.0586 4.66406 12.082 4.66406C12.1055 4.66406 12.1328 4.66406 12.1641 4.66406C13.2891 4.66406 14.2539 5.04688 15.0586 5.8125C15.8633 6.57812 16.2891 7.51562 16.3359 8.625V8.64844C16.3359 8.71094 16.332 8.78906 16.3242 8.88281C16.3164 8.97656 16.3125 9.0625 16.3125 9.14062C16.3125 10.2344 16.4492 11.2891 16.7227 12.3047C16.9961 13.3203 17.3828 14.2734 17.8828 15.1641L17.8359 15.0938H6.16406Z" fill="#637381"/>
</svg>
