<svg width="16" height="16" viewBox="0 0 16 16" fill="none" xmlns="http://www.w3.org/2000/svg">
<path opacity="0.32" d="M14.1205 11.3135C13.9313 11.7503 13.4816 12 13.0057 12H9.87687C9.89737 11.943 9.91556 11.8846 9.93129 11.8249C10.1139 11.1316 9.92155 10.426 9.48082 9.93087C9.64352 8.60607 9.74505 7.24884 9.80709 6.17677C9.83785 5.64487 9.18622 5.46721 8.95152 5.94351C8.47845 6.90351 7.89945 8.13054 7.38935 9.36067C6.76439 9.56524 6.25112 10.0784 6.06855 10.7717C5.95753 11.1933 5.98513 11.6194 6.12293 12H2.99419C2.51824 12 2.06851 11.7503 1.87937 11.3135C1.528 10.5022 1.33325 9.60717 1.33325 8.66667C1.33325 4.98477 4.31802 2 7.99992 2C11.6818 2 14.6666 4.98477 14.6666 8.66667C14.6666 9.60717 14.4719 10.5022 14.1205 11.3135Z" fill="#1877F2"/>
<path d="M9.80717 6.1771C9.83793 5.6452 9.1863 5.46753 8.9516 5.94383C8.47853 6.90383 7.89953 8.13087 7.38943 9.361C6.76447 9.56557 6.2512 10.0788 6.06863 10.772C5.7828 11.8574 6.41583 12.973 7.4825 13.2638C8.54917 13.5547 9.64557 12.9106 9.93137 11.8252C10.1139 11.1319 9.92163 10.4263 9.4809 9.9312C9.6436 8.6064 9.74513 7.24917 9.80717 6.1771Z" fill="#1877F2"/>
</svg>
