<svg width="17" height="16" viewBox="0 0 17 16" fill="none" xmlns="http://www.w3.org/2000/svg">
<rect opacity="0.35" x="5" y="14.5" width="11.8074" height="7" rx="2.5" transform="rotate(-90 5 14.5)" stroke="#1877F2"/>
<path opacity="0.4" d="M7.44238 1.68066L9.95037 1.68066C9.73795 1.2684 9.24382 1.00032 8.69637 1.00032C8.14892 1.00032 7.65479 1.2684 7.44238 1.68066Z" fill="#1877F2"/>
<path d="M8.5 14C7.56812 14 7.10218 14 6.73463 13.8478C6.24458 13.6448 5.85523 13.2554 5.65224 12.7654C5.5 12.3978 5.5 11.9319 5.5 11L5.5 5H11.5V11C11.5 11.9319 11.5 12.3978 11.3478 12.7654C11.1448 13.2554 10.7554 13.6448 10.2654 13.8478C9.89782 14 9.43188 14 8.5 14Z" fill="#1877F2"/>
</svg>
