<svg width="14" height="18" viewBox="0 0 14 18" fill="none" xmlns="http://www.w3.org/2000/svg">
<path d="M6.83357 9.58388C7.67354 9.58388 8.35447 8.90296 8.35447 8.06299C8.35447 7.22303 7.67354 6.5421 6.83357 6.5421C5.99361 6.5421 5.31268 7.22303 5.31268 8.06299C5.31268 8.90296 5.99361 9.58388 6.83357 9.58388Z" stroke="#1877F2" stroke-width="1.5"/>
<path fill-rule="evenodd" clip-rule="evenodd" d="M6.83357 1.39551C3.42596 1.39551 0.75 4.25153 0.75 7.64807C0.75 8.58783 1.08949 9.55349 1.47025 10.3724C1.86576 11.2231 2.38313 12.0759 2.89111 12.8316C3.90836 14.3449 4.97339 15.5938 5.19798 15.8537L5.20259 15.859C5.60346 16.3185 6.19148 16.6044 6.83357 16.6044C7.47566 16.6044 8.06369 16.3185 8.46456 15.859L8.46916 15.8537C8.69376 15.5938 9.75879 14.3449 10.776 12.8316C11.284 12.0759 11.8014 11.2231 12.1969 10.3724C12.5777 9.55349 12.9171 8.58783 12.9171 7.64807C12.9171 4.25153 10.2412 1.39551 6.83357 1.39551Z" stroke="#1877F2" stroke-width="1.5"/>
</svg>
