<svg width="24" height="24" viewBox="0 0 24 24" fill="none" xmlns="http://www.w3.org/2000/svg">
<path d="M12 21C10.75 21 9.58594 20.7656 8.50781 20.2969C7.41406 19.8281 6.45703 19.1875 5.63672 18.375C4.81641 17.5625 4.17188 16.6094 3.70312 15.5156C3.23438 14.4219 3 13.25 3 12C3 10.7656 3.23438 9.60156 3.70312 8.50781C4.17188 7.41406 4.81641 6.46094 5.63672 5.64844C6.45703 4.83594 7.41406 4.19531 8.50781 3.72656C9.58594 3.24219 10.75 3 12 3C13.25 3 14.4141 3.24219 15.4922 3.72656C16.5859 4.19531 17.543 4.83594 18.3633 5.64844C19.1836 6.46094 19.8281 7.41406 20.2969 8.50781C20.7656 9.60156 21 10.7656 21 12C21 13.25 20.7656 14.4219 20.2969 15.5156C19.8281 16.6094 19.1836 17.5625 18.3633 18.375C17.543 19.1875 16.5859 19.8281 15.4922 20.2969C14.4141 20.7656 13.25 21 12 21ZM12 5.01562C11.0312 5.01562 10.125 5.19531 9.28125 5.55469C8.42188 5.92969 7.67578 6.43359 7.04297 7.06641C6.41016 7.69922 5.91406 8.4375 5.55469 9.28125C5.17969 10.125 4.99219 11.0312 4.99219 12C4.99219 12.9688 5.17969 13.8828 5.55469 14.7422C5.91406 15.5859 6.41016 16.3242 7.04297 16.957C7.67578 17.5898 8.42188 18.0938 9.28125 18.4688C10.125 18.8281 11.0312 19.0078 12 19.0078C12.9688 19.0078 13.875 18.8281 14.7188 18.4688C15.5781 18.0938 16.3242 17.5898 16.957 16.957C17.5898 16.3242 18.0859 15.5859 18.4453 14.7422C18.8203 13.8828 19.0078 12.9688 19.0078 12C19.0078 11.0469 18.8203 10.1406 18.4453 9.28125C18.0859 8.4375 17.5898 7.69922 16.957 7.06641C16.3242 6.43359 15.5781 5.92969 14.7188 5.55469C13.875 5.19531 12.9688 5.01562 12 5.01562ZM16.0078 13.5703C16.0391 13.5234 16.0625 13.4688 16.0781 13.4062C16.0938 13.3438 16.1016 13.2734 16.1016 13.1953C16.1016 12.9922 16.043 12.8086 15.9258 12.6445C15.8086 12.4805 15.6562 12.3594 15.4688 12.2812L12.9141 11.2266V7.19531C12.9141 6.92969 12.8164 6.69922 12.6211 6.50391C12.4258 6.30859 12.1875 6.21094 11.9062 6.21094C11.625 6.21094 11.3867 6.30859 11.1914 6.50391C10.9961 6.69922 10.8984 6.92969 10.8984 7.19531V11.9062C10.8984 12.1094 10.957 12.293 11.0742 12.457C11.1914 12.6211 11.3438 12.7422 11.5312 12.8203L14.7188 14.1328C14.7656 14.1484 14.8242 14.1641 14.8945 14.1797C14.9648 14.1953 15.0312 14.2031 15.0938 14.2031C15.2969 14.2031 15.4805 14.1445 15.6445 14.0273C15.8086 13.9102 15.9297 13.7656 16.0078 13.5938V13.5703Z" fill="#637381"/>
</svg>
