<svg width="24" height="24" viewBox="0 0 24 24" fill="none" xmlns="http://www.w3.org/2000/svg">
<path d="M12.0005 12.7006C13.0084 12.7006 13.8256 11.8835 13.8256 10.8755C13.8256 9.86753 13.0084 9.05042 12.0005 9.05042C10.9925 9.05042 10.1754 9.86753 10.1754 10.8755C10.1754 11.8835 10.9925 12.7006 12.0005 12.7006Z" stroke="#637381" stroke-width="2"/>
<path fill-rule="evenodd" clip-rule="evenodd" d="M12.0005 2.87451C7.91134 2.87451 4.7002 6.30174 4.7002 10.3776C4.7002 11.5053 5.10759 12.6641 5.5645 13.6468C6.0391 14.6676 6.65995 15.691 7.26953 16.5978C8.49023 18.4137 9.76826 19.9125 10.0378 20.2243L10.0433 20.2307C10.5243 20.7821 11.23 21.1252 12.0005 21.1252C12.771 21.1252 13.4766 20.7821 13.9577 20.2307L13.9632 20.2243C14.2327 19.9125 15.5107 18.4137 16.7314 16.5978C17.341 15.691 17.9619 14.6676 18.4365 13.6468C18.8934 12.6641 19.3008 11.5053 19.3008 10.3776C19.3008 6.30174 16.0896 2.87451 12.0005 2.87451Z" stroke="#637381" stroke-width="2"/>
</svg>
