<svg width="17" height="16" viewBox="0 0 17 16" fill="none" xmlns="http://www.w3.org/2000/svg">
<path d="M8.8335 14.6641C8.76058 14.6641 8.69287 14.6536 8.63037 14.6328C8.56787 14.612 8.50537 14.5807 8.44287 14.5391H8.4585C8.40641 14.5078 8.11995 14.2839 7.59912 13.8672C7.06787 13.4505 6.50016 12.8984 5.896 12.2109C5.29183 11.5234 4.73975 10.7266 4.23975 9.82031C3.75016 8.90365 3.50537 7.9349 3.50537 6.91406C3.50537 6.89323 3.50537 6.8724 3.50537 6.85156C3.50537 6.83073 3.50537 6.8099 3.50537 6.78906C3.50537 6.04948 3.64079 5.35156 3.91162 4.69531C4.19287 4.03906 4.57308 3.46615 5.05225 2.97656C5.53141 2.48698 6.09912 2.09635 6.75537 1.80469C7.4012 1.5026 8.09391 1.34635 8.8335 1.33594C9.57308 1.34635 10.2658 1.5026 10.9116 1.80469C11.5679 2.09635 12.1356 2.48698 12.6147 2.97656C13.0939 3.46615 13.4741 4.03906 13.7554 4.69531C14.0262 5.35156 14.1616 6.04948 14.1616 6.78906C14.1616 6.8099 14.1616 6.83073 14.1616 6.85156C14.1616 6.8724 14.1616 6.89323 14.1616 6.91406C14.1616 7.9349 13.9168 8.90365 13.4272 9.82031C12.9272 10.7266 12.3752 11.5234 11.771 12.2109C11.1668 12.8984 10.5991 13.4505 10.0679 13.8672C9.54704 14.2839 9.26058 14.5078 9.2085 14.5391C9.15641 14.5807 9.09912 14.612 9.03662 14.6328C8.97412 14.6536 8.90641 14.6641 8.8335 14.6641ZM8.8335 2.66406C8.28141 2.6849 7.76058 2.80469 7.271 3.02344C6.78141 3.24219 6.35693 3.53906 5.99756 3.91406C5.63818 4.28906 5.35433 4.72135 5.146 5.21094C4.93766 5.71094 4.8335 6.23698 4.8335 6.78906C4.8335 6.8099 4.8335 6.83073 4.8335 6.85156C4.8335 6.8724 4.8335 6.89323 4.8335 6.91406C4.8335 7.61198 4.98975 8.28906 5.30225 8.94531C5.62516 9.61198 6.00277 10.2214 6.43506 10.7734C6.86735 11.3255 7.30745 11.8099 7.75537 12.2266C8.20329 12.6328 8.56266 12.9453 8.8335 13.1641C9.10433 12.9453 9.4637 12.6328 9.91162 12.2266C10.3595 11.8099 10.7996 11.3255 11.2319 10.7734C11.6642 10.2214 12.0418 9.61198 12.3647 8.94531C12.6772 8.28906 12.8335 7.61198 12.8335 6.91406C12.8335 6.89323 12.8335 6.8724 12.8335 6.85156C12.8335 6.83073 12.8335 6.8099 12.8335 6.78906C12.8335 6.23698 12.7293 5.71094 12.521 5.21094C12.3127 4.72135 12.0288 4.28906 11.6694 3.91406C11.3101 3.53906 10.8856 3.24219 10.396 3.02344C9.91683 2.80469 9.396 2.6849 8.8335 2.66406ZM8.8335 9.27344C8.82308 9.27344 8.81527 9.27344 8.81006 9.27344C8.80485 9.27344 8.79704 9.27344 8.78662 9.27344C8.09912 9.27344 7.51318 9.03125 7.02881 8.54688C6.54443 8.0625 6.30225 7.47656 6.30225 6.78906C6.30225 6.10156 6.54443 5.51562 7.02881 5.03125C7.51318 4.54688 8.09912 4.30469 8.78662 4.30469C9.47412 4.30469 10.0601 4.54688 10.5444 5.03125C11.0288 5.51562 11.271 6.10156 11.271 6.78906C11.271 6.78906 11.271 6.79167 11.271 6.79688C11.271 6.80208 11.271 6.80469 11.271 6.80469C11.271 7.48177 11.034 8.0599 10.5601 8.53906C10.0861 9.01823 9.51058 9.26302 8.8335 9.27344ZM8.8335 5.63281C8.82308 5.63281 8.81527 5.63281 8.81006 5.63281C8.80485 5.63281 8.79704 5.63281 8.78662 5.63281C8.47412 5.63281 8.20589 5.74479 7.98193 5.96875C7.75798 6.19271 7.646 6.46615 7.646 6.78906C7.646 7.10156 7.75798 7.3724 7.98193 7.60156C8.20589 7.83073 8.47412 7.94531 8.78662 7.94531C9.10954 7.94531 9.38298 7.83073 9.60693 7.60156C9.83089 7.3724 9.94287 7.10156 9.94287 6.78906C9.94287 6.77865 9.94287 6.77344 9.94287 6.77344C9.94287 6.46094 9.8361 6.19531 9.62256 5.97656C9.40902 5.75781 9.146 5.64323 8.8335 5.63281Z" fill="#212B36"/>
</svg>
